<?xml version="1.0" encoding="utf-8"?>
<svg viewBox="0 0 500 500" xmlns="http://www.w3.org/2000/svg">
  <g id="XMLID_1020_" transform="matrix(1, 0, 0, 1, 117.597153, 56.701328)">
    <g id="XMLID_1021_">
      <rect id="XMLID_1022_" y="50" style="fill: rgb(255, 205, 0);" width="310" height="260"/>
      <g id="XMLID_1023_">
        <rect id="XMLID_1024_" y="30" style="fill: rgb(245, 217, 90);" width="155" height="60"/>
        <rect id="XMLID_1025_" x="155" y="30" style="fill: rgb(245, 217, 90);" width="155" height="60"/>
      </g>
      <rect id="XMLID_49_" x="30" y="140" style="fill: rgb(245, 217, 90);" width="50" height="30"/>
      <rect id="XMLID_48_" x="79.997" y="139.998" style="fill: rgb(25, 25, 25);" width="200" height="30"/>
      <rect id="XMLID_47_" x="80" y="170" style="fill: rgb(245, 217, 90);" width="50" height="30"/>
      <rect id="XMLID_46_" x="130" y="170" style="fill: rgb(25, 25, 25);" width="50" height="30"/>
      <rect id="XMLID_45_" x="180" y="170" style="fill: rgb(245, 217, 90);" width="50" height="30"/>
      <rect id="XMLID_44_" x="230" y="170" style="fill: rgb(25, 25, 25);" width="50" height="30"/>
      <rect id="XMLID_43_" x="80" y="230" style="fill: rgb(245, 217, 90);" width="50" height="30"/>
      <rect id="XMLID_42_" x="130" y="230" style="fill: rgb(25, 25, 25);" width="50" height="30"/>
      <rect id="XMLID_41_" x="180" y="230" style="fill: rgb(245, 217, 90);" width="50" height="30"/>
      <rect id="XMLID_40_" x="230" y="230" style="fill: rgb(25, 25, 25);" width="50" height="30"/>
      <rect id="XMLID_39_" x="229.999" y="199.999" style="fill: rgb(245, 217, 90);" width="50" height="30"/>
      <rect id="XMLID_38_" x="179.999" y="199.999" style="fill: rgb(25, 25, 25);" width="50" height="30"/>
      <rect id="XMLID_37_" x="129.999" y="199.999" style="fill: rgb(245, 217, 90);" width="50" height="30"/>
      <rect id="XMLID_36_" x="79.999" y="199.999" style="fill: rgb(25, 25, 25);" width="50" height="30"/>
      <rect id="XMLID_35_" x="30.003" y="170.002" style="fill: rgb(25, 25, 25);" width="50" height="90"/>
    </g>
    <g id="XMLID_1026_">
      <rect id="XMLID_33_" x="215" style="fill: rgb(25, 25, 25);" width="30" height="60"/>
      <rect id="XMLID_32_" x="65.001" style="fill: rgb(25, 25, 25);" width="30" height="60"/>
    </g>
  </g>
  <g transform="matrix(1, 0, 0, 1, 117.597153, 56.701328)"/>
  <g transform="matrix(1, 0, 0, 1, 117.597153, 56.701328)"/>
  <g transform="matrix(1, 0, 0, 1, 117.597153, 56.701328)"/>
  <g transform="matrix(1, 0, 0, 1, 117.597153, 56.701328)"/>
  <g transform="matrix(1, 0, 0, 1, 117.597153, 56.701328)"/>
  <g transform="matrix(1, 0, 0, 1, 117.597153, 56.701328)"/>
  <g transform="matrix(1, 0, 0, 1, 117.597153, 56.701328)"/>
  <g transform="matrix(1, 0, 0, 1, 117.597153, 56.701328)"/>
  <g transform="matrix(1, 0, 0, 1, 117.597153, 56.701328)"/>
  <g transform="matrix(1, 0, 0, 1, 117.597153, 56.701328)"/>
  <g transform="matrix(1, 0, 0, 1, 117.597153, 56.701328)"/>
  <g transform="matrix(1, 0, 0, 1, 117.597153, 56.701328)"/>
  <g transform="matrix(1, 0, 0, 1, 117.597153, 56.701328)"/>
  <g transform="matrix(1, 0, 0, 1, 117.597153, 56.701328)"/>
  <g transform="matrix(1, 0, 0, 1, 117.597153, 56.701328)"/>
</svg>