<?xml version="1.0" encoding="utf-8"?>
<svg viewBox="0 0 500 500" xmlns="http://www.w3.org/2000/svg">
  <g id="Layer_1" transform="matrix(1, 0, 0, 1, -68.573799, 45.380558)">
    <title>Layer 1</title>
    <g id="svg_48">
      <circle cx="311.077" cy="207.13" r="222.18" fill="#ffffff" id="svg_5" style=""/>
      <circle cx="308.619" cy="204.417" r="161.249" fill="#191919" id="svg_9" style=""/>
      <path d="M 308.619 43.171 C 308.363 43.171 308.116 43.188 307.863 43.188 L 307.863 365.626 C 308.116 365.626 308.363 365.644 308.619 365.644 C 397.668 365.644 469.858 293.456 469.858 204.408 C 469.858 115.359 397.668 43.171 308.619 43.171 Z" fill="#191919" id="svg_10" style=""/>
      <path d="M 179.395 295.811 C 192.196 355.427 245.176 400.127 308.619 400.127 C 372.062 400.127 425.042 355.427 437.843 295.811 L 179.395 295.811 Z" fill="#191919" id="svg_11" style=""/>
      <path d="M 307.863 295.806 L 307.863 400.107 C 308.115 400.107 308.363 400.125 308.619 400.125 C 372.061 400.125 425.042 355.424 437.843 295.806 L 307.863 295.806 L 307.863 295.806 Z" fill="#191919" id="svg_12" style=""/>
      <path d="M 225.877 294.77 C 234.074 332.942 267.996 361.562 308.619 361.562 C 349.24 361.562 383.162 332.942 391.36 294.77 L 225.877 294.77 Z" fill="#ffffff" id="svg_13" style=""/>
      <path d="M 307.863 294.77 L 307.863 361.547 C 308.115 361.55 308.363 361.562 308.619 361.562 C 349.24 361.562 383.162 332.942 391.36 294.77 L 307.863 294.77 Z" fill="#ffffff" id="svg_14" style=""/>
      <circle cx="273.215" cy="241.886" r="18.584" fill="#ffffff" id="svg_15" style=""/>
      <circle cx="344.023" cy="241.886" r="18.584" fill="#ffffff" id="svg_16" style=""/>
      <path d="M 442.214 319.254 L 183.951 319.254 C 177.002 319.254 170.528 315.718 166.771 309.871 L 130.301 253.132 C 124.201 243.643 126.949 231.007 136.44 224.906 C 145.933 218.804 158.57 221.555 164.668 231.043 L 195.104 278.402 L 429.424 278.402 L 451.376 233.17 C 456.301 223.022 468.522 218.788 478.669 223.714 C 488.818 228.638 493.05 240.859 488.127 251.007 L 460.59 307.745 C 457.175 314.785 450.039 319.254 442.214 319.254 Z" fill="#FFCD00" id="svg_17" style=""/>
      <path d="M 478.671 223.714 C 468.524 218.786 456.304 223.02 451.378 233.17 L 429.424 278.402 L 307.862 278.402 L 307.862 319.252 L 442.214 319.252 C 450.037 319.252 457.175 314.785 460.591 307.746 L 488.129 251.007 C 493.055 240.859 488.819 228.638 478.671 223.714 Z" fill="#FFCD00" id="svg_18" style=""/>
      <path d="M 272.908 152.782 C 269.237 124.723 248.167 79.234 193.715 67.213 C 122.614 51.516 91.882 31.855 91.882 31.855 C 91.882 31.855 98.246 108.231 149.869 136.518 L 119.463 136.518 C 119.463 136.518 146.336 206.529 217.053 206.529 C 264.434 206.529 275.42 171.999 272.908 152.782 Z" fill="#191919" id="svg_19" style=""/>
      <path d="M 272.908 174 C 269.237 145.941 248.167 100.452 193.715 88.431 C 122.614 72.733 91.882 53.071 91.882 53.071 C 91.882 53.071 98.246 129.447 149.869 157.733 L 119.463 157.733 C 119.463 157.733 146.336 227.745 217.053 227.745 C 264.434 227.745 275.42 193.213 272.908 174 Z" fill="#FFCD00" id="svg_20" style=""/>
      <circle cx="221.992" cy="174.005" r="38.189" fill="#191919" id="svg_21" style=""/>
      <circle cx="221.992" cy="174.005" r="19.801" fill="#ffffff" id="svg_22" style=""/>
      <path d="M 344.33 152.782 C 347.999 124.723 369.07 79.234 423.521 67.213 C 494.622 51.516 525.355 31.855 525.355 31.855 C 525.355 31.855 518.991 108.231 467.368 136.518 L 497.776 136.518 C 497.776 136.518 470.904 206.529 400.185 206.529 C 352.804 206.529 341.817 171.999 344.33 152.782 Z" fill="#191919" id="svg_23" style=""/>
      <path d="M 344.33 174 C 347.999 145.941 369.07 100.452 423.521 88.431 C 494.622 72.733 525.355 53.071 525.355 53.071 C 525.355 53.071 518.991 129.447 467.368 157.733 L 497.776 157.733 C 497.776 157.733 470.904 227.745 400.185 227.745 C 352.804 227.745 341.817 193.213 344.33 174 Z" fill="#FFCD00" id="svg_24" style=""/>
      <circle cx="395.222" cy="174.005" r="38.189" fill="#191919" id="svg_25" style=""/>
      <circle cx="395.222" cy="174.005" r="19.801" fill="#ffffff" id="svg_26" style=""/>
      <circle cx="308.619" cy="57.126" r="44.632" fill="#FC6F58" id="svg_27" style=""/>
      <g id="svg_28" transform="matrix(1.316486, 0, 0, 1.316486, -28.403275, -125.569389)" style="">
        <circle cx="256" cy="138.774" r="14.653" fill="#FD8469" id="svg_29"/>
        <path d="m256,154.29c-8.556,0 -15.515,-6.959 -15.515,-15.515s6.959,-15.515 15.515,-15.515c8.556,0 15.515,6.959 15.515,15.515s-6.959,15.515 -15.515,15.515zm0,-29.307c-7.604,0 -13.791,6.187 -13.791,13.791c0,7.604 6.187,13.791 13.791,13.791c7.604,0 13.791,-6.187 13.791,-13.791c0,-7.604 -6.187,-13.791 -13.791,-13.791z" fill="#FD8469" id="svg_30"/>
      </g>
      <circle cx="308.619" cy="57.126" r="44.632" fill="#FFCD00" id="svg_31" style=""/>
      <path d="M 308.619 12.493 C 308.363 12.493 308.116 12.528 307.863 12.532 L 307.863 101.721 C 308.116 101.724 308.363 101.759 308.619 101.759 C 333.266 101.759 353.25 81.777 353.25 57.127 C 353.25 32.48 333.266 12.493 308.619 12.493 Z" fill="#FFCD00" id="svg_32" style=""/>
      <g id="svg_33"/>
      <g id="svg_34"/>
      <g id="svg_35"/>
      <g id="svg_36"/>
      <g id="svg_37"/>
      <g id="svg_38"/>
      <g id="svg_39"/>
      <g id="svg_40"/>
      <g id="svg_41"/>
      <g id="svg_42"/>
      <g id="svg_43"/>
      <g id="svg_44"/>
      <g id="svg_45"/>
      <g id="svg_46"/>
      <g id="svg_47"/>
    </g>
  </g>
</svg>