<?xml version="1.0" encoding="utf-8"?>
<svg viewBox="0 0 500 500" xmlns="http://www.w3.org/2000/svg">
  <g transform="matrix(1, 0, 0, 1, -0.796594, 6.611403)">
    <g id="XMLID_26_">
      <g>
        <polygon style="fill: rgb(25, 25, 25);" points="245.007,10 294.417,80 195.597,80 &#9;&#9;&#9;"/>
        <polygon style="fill: rgb(255, 255, 255);" points="294.417,80 365.007,180 325.007,230 285.007,180 245.007,230 205.007,180 165.007,230 &#10;&#9;&#9;&#9;&#9;125.007,180 195.597,80 &#9;&#9;&#9;"/>
        <polygon style="fill: rgb(245, 217, 90);" points="365.007,180 365.007,490 325.007,490 325.007,230 &#9;&#9;&#9;"/>
        <polygon style="fill: rgb(245, 217, 90);" points="205.007,180 245.007,230 244.587,490 165.007,490 165.007,230 &#9;&#9;&#9;"/>
        <polygon style="fill: rgb(255, 205, 0);" points="165.007,230 165.007,490 125.007,490 125.007,180 &#9;&#9;&#9;"/>
        <polygon style="fill: rgb(255, 205, 0);" points="325.007,230 325.007,490 244.587,490 245.007,230 285.007,180 &#9;&#9;&#9;"/>
      </g>
      <path d="M375,180c0-2.015-0.6-4.034-1.823-5.767l-70.589-99.999l0,0l-49.41-70C251.303,1.579,248.257,0,245.007,0 s-6.296,1.579-8.17,4.233l-49.41,70l0,0l-70.589,99.999c-1.223,1.733-1.823,3.752-1.823,5.767h-0.007v310h20V208.508l20,25V490h20 V233.508l30-37.5l29.994,37.493l-0.414,256.483l20,0.032l0.414-256.502l30.006-37.507l30,37.5V490h20V233.508l20-25V490h20V180 H375z M245.007,27.341L275.118,70h-60.223L245.007,27.341z M325.007,213.992l-32.191-40.239c-1.898-2.372-4.771-3.753-7.809-3.753 s-5.911,1.381-7.809,3.753l-32.191,40.239l-32.191-40.239c-1.897-2.372-4.771-3.753-7.809-3.753c-3.038,0-5.911,1.381-7.809,3.753 l-32.191,40.239l-27.494-34.368L200.779,90h88.457l63.266,89.624L325.007,213.992z"/>
    </g>
  </g>
</svg>